<svg xmlns="http://www.w3.org/2000/svg" viewBox="0 0 136.83 136.83">
  <g id="Circle">
    <circle cx="68.42" cy="68.42" r="68.42" fill="#fff"/>
  </g>
  <g id="Hat">
    <g>
      <path d="M73.2,48.58s35.83,3.17,48.5-10.5H95.2S78.78,11.75,48.37,21.42s-25.5,42.66-17.17,47C50.87,58.92,73.2,48.58,73.2,48.58Z" fill="#2d2d2d"/>
      <path d="M84.08,48.89s11.83,10.86,16.5,9.69,15.16-4,21.12-20.5C105.5,43.85,84.08,48.89,84.08,48.89Z" fill="#3a3a3a"/>
    </g>
    <polygon points="85.3 48.59 100.42 48.94 121.7 38.08 85.3 48.59" fill="#2d2d2d"/>
  </g>
  <g id="Face">
    <path d="M100.58,58.32" fill="#c2926e"/>
    <path d="M100.58,58.32" fill="#c2926e"/>
    <path d="M84.08,48.58" fill="#c2926e"/>
    <path d="M107.25,70.79c-.11-3.12-7.45-10.6-7.45-10.6l.78-1.87s2.08-9-.58-9.32-15.92-.42-15.92-.42H72.55L35.61,66.07S42,91.55,41.14,96.9a45.63,45.63,0,0,1-2.73,9.6l38.84,12.83s4.33-10.82,5.22-10.6S108.8,99.81,98.58,91c7.33-14.06,3.22-16.18,3.22-16.18S107.36,73.92,107.25,70.79Z" fill="#c2926e"/>
  </g>
  <g id="Beard">
    <path d="M97.06,112.1c3-3.48,6-12.94,3.93-16.73-.33-5-5.74-5-5.74-5C94.14,89.24,98.33,80.13,81.8,76.9,72,73.13,72.87,48.38,72.87,48.38l-.66.3s-1.2.11-2.91.33C66,50.41,63,52.78,60,54.5c7.82,4.14,5.5,38.31,6.5,44.29S88.58,113,94.91,113.35h.14a.55.55,0,0,0,.36,0,1.09,1.09,0,0,0,.23-.09A2.39,2.39,0,0,0,97.06,112.1Z" fill="#262626"/>
  </g>
  <g id="Mustache">
    <path d="M100.23,74.83s-2.33,4.84-2.33,6.92,2-1.92,2-1.92l3-1.24S103.58,73.67,100.23,74.83Z" fill="#262626"/>
  </g>
  <g id="Hair">
    <path d="M30.87,67.73s-1,16.59,5.13,23.34c.83,8,6.78,1.25,6.78,1.25s9.63,1.33,8.8-3.67S43.72,80,49.19,74.54,42.78,62,42.78,62Z" fill="#262626"/>
  </g>
  <g id="Ear">
    <path d="M43.14,63.78s-.78-7.89,6.11-10,8.66,6,8.66,6l1,5.33s5.78,7,2.78,10.33c0,0-1.61,4.89-5.11,3.56S47,76.47,43.14,63.78Z" fill="#af7e5d"/>
  </g>
  <g id="Eyebrows">
    <path d="M99.37,50.91S90,49.05,84.82,53.5A2.12,2.12,0,0,0,83.89,55s5-3.4,8.94-2.83A9.48,9.48,0,0,0,99.37,50.91Z" fill="#262626"/>
  </g>
  <g id="Glasses">
    <path d="M85.4,51h0L71.63,52l-1.32.5S55.2,54.11,54.63,54.44l.46.41.4.43,14.87-1.34,1.58.39,13.46-2,10.79-1V50.17Z" fill="#898989"/>
    <path d="M98,62.93c-3.82.34-3.7-11.87-1.18-12.6a3,3,0,0,1,3.84,1.85C100.87,52.78,102,61,98,62.93Z" fill="none" stroke="#1d2870" stroke-miterlimit="10"/>
  </g>
</svg>
